<?xml version="1.0" encoding="UTF-8"?>
<svg version="1.1" xmlns="http://www.w3.org/2000/svg" width="390" height="76">
<path d="M0 0 C5.10196273 1.00217125 9.97237952 2.28953862 14.89941406 3.9309082 C29.63238053 8.79908854 40.34280768 6.53777542 54.625 0.671875 C57.21744726 -0.06151469 58.49871012 0.09675643 61 1 C60.43454163 4.95820859 59.19097652 7.6659053 57 11 C57.72896484 12.05380859 57.72896484 12.05380859 58.47265625 13.12890625 C61.0220643 17.92127176 60.63220439 22.70528819 60 28 C57.55399189 33.47905816 54.26689623 35.548169 49 38 C44.29113645 39.36033836 40.13676715 38.77923117 35.3671875 38.05859375 C32.66605892 37.99173413 31.28468997 38.61549894 29 40 C28.62359375 39.484375 28.2471875 38.96875 27.859375 38.4375 C26.03616227 36.68994916 26.03616227 36.68994916 23.328125 37.25 C22.31234375 37.4975 21.2965625 37.745 20.25 38 C14.80998133 39.04212406 11.79363962 39.16380215 7 36 C2.64372443 31.70312819 -0.13776815 28.42572039 -0.25 22.1875 C-0.23743154 17.81367671 0.67219879 15.70332011 3 12 C2.33719617 9.56971928 1.7989028 7.7989028 0 6 C-0.04080783 4.00041636 -0.04254356 1.99954746 0 0 Z M8 14 C5.59584531 17.41234859 5 19.38189691 5 23.5625 C6.2311334 27.79452105 7.43056167 29.41785313 11 32 C14.854792 33.26156829 18.00602675 33.41967759 21.8125 31.8125 C25.63596691 28.64448456 26.84433095 27.20643515 27.5 22.125 C27.3483145 18.74367738 26.80969645 17.67291577 25 14.5625 C21.77418374 11.80711528 20.12391768 11.03862615 15.9921875 10.8359375 C12.68639382 11.10817933 10.67638101 12.07051601 8 14 Z M35 15 C32.64757653 18.20785018 32.5315791 21.09649252 33 25 C35.13660787 28.96798604 36.78188549 31.37587197 41 33 C44.12303656 33.21443385 46.99385827 32.87310734 50 32 C52.67659573 29.39031917 54.95062677 26.82680935 55.0546875 22.9765625 C54.68357767 17.68417149 54.68357767 17.68417149 51.5625 13.5 C45.11865261 9.72799177 40.89838868 10.17404563 35 15 Z " fill="#2A7DAA" transform="translate(148,19)"/>
<path d="M0 0 C2.1953125 0.04296875 2.1953125 0.04296875 4.125 0.375 C5.875 2.3125 5.875 2.3125 7.125 5.375 C7.85234627 6.97999287 8.58161888 8.58411374 9.3125 10.1875 C9.9198677 11.58194345 10.52512326 12.97731765 11.125 14.375 C11.39054687 13.61574219 11.65609375 12.85648438 11.9296875 12.07421875 C12.28289063 11.08035156 12.63609375 10.08648437 13 9.0625 C13.34804688 8.07636719 13.69609375 7.09023438 14.0546875 6.07421875 C15.125 3.375 15.125 3.375 17.125 0.375 C19.8677508 -0.09614738 22.32058897 0.19694216 25.125 0.375 C26.125 1.375 26.125 1.375 26.23852539 3.69165039 C26.23328857 4.69188232 26.22805176 5.69211426 26.22265625 6.72265625 C26.21943359 7.80224609 26.21621094 8.88183594 26.21289062 9.99414062 C26.20451172 11.13044922 26.19613281 12.26675781 26.1875 13.4375 C26.18298828 14.57767578 26.17847656 15.71785156 26.17382812 16.89257812 C26.16199747 19.72010351 26.1455141 22.5475264 26.125 25.375 C24.145 25.375 22.165 25.375 20.125 25.375 C18.68292059 22.49084117 19.03105113 19.95778472 19.0625 16.75 C19.07152344 15.56148437 19.08054687 14.37296875 19.08984375 13.1484375 C19.10144531 12.23320313 19.11304687 11.31796875 19.125 10.375 C18.77566406 11.37402344 18.42632812 12.37304688 18.06640625 13.40234375 C17.60692081 14.70578205 17.14727721 16.0091646 16.6875 17.3125 C16.45740234 17.97185547 16.22730469 18.63121094 15.99023438 19.31054688 C14.23828125 24.26171875 14.23828125 24.26171875 13.125 25.375 C11.45882885 25.41563832 9.79111905 25.417721 8.125 25.375 C7.49190809 24.19179424 6.86903282 23.00312152 6.25 21.8125 C5.90195312 21.15121094 5.55390625 20.48992188 5.1953125 19.80859375 C3.86398995 16.78153555 3.0334717 13.55465097 2.125 10.375 C1.795 15.325 1.465 20.275 1.125 25.375 C-0.855 25.375 -2.835 25.375 -4.875 25.375 C-4.90386984 21.39584841 -4.92175406 17.41672347 -4.9375 13.4375 C-4.94587891 12.30119141 -4.95425781 11.16488281 -4.96289062 9.99414062 C-4.96611328 8.91455078 -4.96933594 7.83496094 -4.97265625 6.72265625 C-4.97789307 5.72242432 -4.98312988 4.72219238 -4.98852539 3.69165039 C-4.79713514 -0.21394544 -4.1213359 0.39883896 0 0 Z " fill="#333943" transform="translate(48.875,24.625)"/>
<path d="M0 0 C0.86625 0.01804687 1.7325 0.03609375 2.625 0.0546875 C3.800625 0.08949219 3.800625 0.08949219 5 0.125 C5.99 0.125 6.98 0.125 8 0.125 C14.66666667 0.125 21.33333333 0.125 28 0.125 C28 1.445 28 2.765 28 4.125 C25.69 4.125 23.38 4.125 21 4.125 C21 11.055 21 17.985 21 25.125 C19.02 25.125 17.04 25.125 15 25.125 C14.09761253 22.41783758 13.88148698 20.88723232 13.90234375 18.11328125 C13.90556641 17.35595703 13.90878906 16.59863281 13.91210938 15.81835938 C13.92048828 15.03267578 13.92886719 14.24699219 13.9375 13.4375 C13.94201172 12.64021484 13.94652344 11.84292969 13.95117188 11.02148438 C13.9629415 9.05595743 13.98087652 7.09046915 14 5.125 C10.65747276 5.05072162 8.1964086 5.05953047 5 6.125 C4.01 5.91875 3.02 5.7125 2 5.5 C-0.92213302 4.79488402 -0.92213302 4.79488402 -2.6640625 6.28515625 C-4.41385861 8.69496317 -4.40111599 10.23204055 -4.375 13.1875 C-4.38273437 14.06535156 -4.39046875 14.94320312 -4.3984375 15.84765625 C-4.26695312 16.59917969 -4.13546875 17.35070312 -4 18.125 C-0.64672361 20.36051759 -0.09256343 20.29783528 3.6875 19.75 C4.49574219 19.63914062 5.30398438 19.52828125 6.13671875 19.4140625 C6.75160156 19.31867187 7.36648438 19.22328125 8 19.125 C7.625 21.5625 7.625 21.5625 7 24.125 C3.27533151 25.98733425 -0.94495313 25.69630829 -5 25.125 C-8.12578143 23.4529253 -10.39281175 21.3393765 -12 18.125 C-12.55601425 13.05706684 -12.55831633 9.20312809 -10.1875 4.625 C-6.88041769 0.84547736 -4.89771015 -0.13118866 0 0 Z " fill="#2D2C2C" transform="translate(302,24.875)"/>
<path d="M0 0 C3.58375347 3.24777658 3.93515462 5.99544825 4.3125 10.75 C4.19245371 14.72653325 3.25370405 17.47080089 1 20.8125 C-2.80676975 24.27319978 -6.69917788 24.26624838 -11.625 24.09765625 C-14.79031195 23.71761057 -16.63271078 22.95785586 -19 20.8125 C-21.42168275 16.77636208 -21.57663308 12.40754482 -21 7.8125 C-19.76391302 4.3644679 -18.63998001 2.39430001 -15.9375 -0.0625 C-10.64531434 -2.08929451 -5.26882907 -2.08557817 0 0 Z M-12.15625 3.96875 C-14.22482291 5.69878447 -14.22482291 5.69878447 -14.53125 8.40625 C-14.5209375 9.3653125 -14.510625 10.324375 -14.5 11.3125 C-14.5103125 12.2715625 -14.520625 13.230625 -14.53125 14.21875 C-14.22730206 16.93146276 -14.22730206 16.93146276 -12.12890625 18.6484375 C-10.0287454 19.9979355 -10.0287454 19.9979355 -7.4375 19.9375 C-4.67935826 18.93596834 -4.67935826 18.93596834 -3.0625 15.6875 C-1.57692124 11.61684634 -2.28530519 8.78747432 -4 4.8125 C-7.34594528 2.58186981 -8.58284114 2.05257424 -12.15625 3.96875 Z " fill="#2F3036" transform="translate(352,26.1875)"/>
<path d="M0 0 C1.24394531 -0.03738281 2.48789062 -0.07476563 3.76953125 -0.11328125 C7.1875 0.3125 7.1875 0.3125 9.609375 2.14453125 C11.74123546 5.07320094 11.70497597 6.76409337 11.1875 10.3125 C9.6875 12.6875 9.6875 12.6875 8.1875 14.3125 C8.47625 14.85519531 8.765 15.39789063 9.0625 15.95703125 C9.43375 16.67246094 9.805 17.38789062 10.1875 18.125 C10.744375 19.18654297 10.744375 19.18654297 11.3125 20.26953125 C12.1875 22.3125 12.1875 22.3125 12.1875 25.3125 C10.2075 25.3125 8.2275 25.3125 6.1875 25.3125 C5.84976562 24.67441406 5.51203125 24.03632812 5.1640625 23.37890625 C4.71804688 22.55261719 4.27203125 21.72632812 3.8125 20.875 C3.37164062 20.05128906 2.93078125 19.22757813 2.4765625 18.37890625 C1.35331441 16.17783422 1.35331441 16.17783422 -0.8125 15.3125 C-0.80089844 15.95058594 -0.78929687 16.58867188 -0.77734375 17.24609375 C-0.76832031 18.07238281 -0.75929688 18.89867188 -0.75 19.75 C-0.73839844 20.57371094 -0.72679687 21.39742187 -0.71484375 22.24609375 C-0.8125 24.3125 -0.8125 24.3125 -1.8125 25.3125 C-4.3125 25.4375 -4.3125 25.4375 -6.8125 25.3125 C-8.49766954 23.62733046 -7.94258019 21.52482212 -7.9453125 19.21875 C-7.94724609 17.67380859 -7.94724609 17.67380859 -7.94921875 16.09765625 C-7.94535156 15.01355469 -7.94148438 13.92945313 -7.9375 12.8125 C-7.94136719 11.72839844 -7.94523437 10.64429688 -7.94921875 9.52734375 C-7.94792969 8.49738281 -7.94664062 7.46742187 -7.9453125 6.40625 C-7.94418457 5.45427734 -7.94305664 4.50230469 -7.94189453 3.52148438 C-7.66688183 -1.17344951 -3.94234223 0.07714161 0 0 Z M-0.8125 4.3125 C-0.8125 6.6225 -0.8125 8.9325 -0.8125 11.3125 C1.66016765 10.96805119 1.66016765 10.96805119 4.1875 10.3125 C4.5175 9.6525 4.8475 8.9925 5.1875 8.3125 C4.8575 7.3225 4.5275 6.3325 4.1875 5.3125 C2.5375 4.9825 0.8875 4.6525 -0.8125 4.3125 Z " fill="#48403C" transform="translate(366.8125,24.6875)"/>
<path d="M0 0 C3.60738229 3.2691902 4.1299301 6.54623898 4.375 11.25 C4.26956998 15.76842932 3.02398103 18.3685216 0 21.8125 C-3.05497517 23.72512334 -5.42093465 24.08432357 -9 24.0625 C-10.2684375 24.07023437 -10.2684375 24.07023437 -11.5625 24.078125 C-14.19108799 23.79167631 -15.77959251 23.23163 -18 21.8125 C-21.05812012 17.22531982 -21.78102481 13.17268394 -21 7.8125 C-19.76391302 4.3644679 -18.63998001 2.39430001 -15.9375 -0.0625 C-10.64531434 -2.08929451 -5.26882907 -2.08557817 0 0 Z M-12.15625 3.96875 C-14.22482291 5.69878447 -14.22482291 5.69878447 -14.53125 8.40625 C-14.5209375 9.3653125 -14.510625 10.324375 -14.5 11.3125 C-14.5103125 12.2715625 -14.520625 13.230625 -14.53125 14.21875 C-14.2249718 16.93126037 -14.2249718 16.93126037 -12.1328125 18.66796875 C-10.01590956 20.04864048 -10.01590956 20.04864048 -7.375 19.625 C-4.84979635 18.95573449 -4.84979635 18.95573449 -3 16.8125 C-1.4791239 12.37661138 -2.37122839 9.12874477 -4 4.8125 C-7.34594528 2.58186981 -8.58284114 2.05257424 -12.15625 3.96875 Z " fill="#272625" transform="translate(284,26.1875)"/>
<path d="M0 0 C1.15113281 -0.03738281 2.30226563 -0.07476563 3.48828125 -0.11328125 C6.6875 0.3125 6.6875 0.3125 9.1328125 2.0859375 C10.6875 4.3125 10.6875 4.3125 10.25 8.25 C10.1159375 8.94609375 9.981875 9.6421875 9.84375 10.359375 C9.61155123 13.26185957 11.19111667 14.90527464 12.6875 17.3125 C12.04754785 20.29894339 11.1942863 21.8175545 9.015625 23.9453125 C5.88937188 25.7811994 3.59994833 25.64312594 0 25.5625 C-1.15886719 25.54703125 -2.31773438 25.5315625 -3.51171875 25.515625 C-6.3125 25.3125 -6.3125 25.3125 -7.3125 24.3125 C-7.41182153 22.61691274 -7.44330007 20.91724253 -7.4453125 19.21875 C-7.44724609 17.67380859 -7.44724609 17.67380859 -7.44921875 16.09765625 C-7.44535156 15.01355469 -7.44148438 13.92945313 -7.4375 12.8125 C-7.44136719 11.72839844 -7.44523437 10.64429688 -7.44921875 9.52734375 C-7.44792969 8.49738281 -7.44664063 7.46742187 -7.4453125 6.40625 C-7.44418457 5.45427734 -7.44305664 4.50230469 -7.44189453 3.52148438 C-7.17552932 -1.02582208 -3.87334482 0.08186157 0 0 Z M-1.3125 4.3125 C-1.3125 6.2925 -1.3125 8.2725 -1.3125 10.3125 C0.3375 9.9825 1.9875 9.6525 3.6875 9.3125 C3.6875 7.9925 3.6875 6.6725 3.6875 5.3125 C2.0375 4.9825 0.3875 4.6525 -1.3125 4.3125 Z M-1.3125 14.3125 C-1.3125 16.6225 -1.3125 18.9325 -1.3125 21.3125 C1.10395782 21.47937448 1.10395782 21.47937448 3.6875 21.3125 C4.3475 20.6525 5.0075 19.9925 5.6875 19.3125 C5.3689823 17.20429203 5.3689823 17.20429203 4.6875 15.3125 C1.7175 14.8175 1.7175 14.8175 -1.3125 14.3125 Z " fill="#151518" transform="translate(29.3125,24.6875)"/>
<path d="M0 0 C1.24394531 -0.03738281 2.48789063 -0.07476563 3.76953125 -0.11328125 C7.1875 0.3125 7.1875 0.3125 9.609375 2.14453125 C11.74123546 5.07320094 11.70497597 6.76409337 11.1875 10.3125 C9.6875 12.6875 9.6875 12.6875 8.1875 14.3125 C8.47625 14.85519531 8.765 15.39789063 9.0625 15.95703125 C9.43375 16.67246094 9.805 17.38789062 10.1875 18.125 C10.744375 19.18654297 10.744375 19.18654297 11.3125 20.26953125 C12.1875 22.3125 12.1875 22.3125 12.1875 25.3125 C10.2075 25.3125 8.2275 25.3125 6.1875 25.3125 C5.93355469 24.75820313 5.67960938 24.20390625 5.41796875 23.6328125 C5.07378906 22.90835938 4.72960937 22.18390625 4.375 21.4375 C3.87033203 20.35855469 3.87033203 20.35855469 3.35546875 19.2578125 C2.19282903 17.00707194 2.19282903 17.00707194 -0.8125 15.3125 C-0.791875 16.59125 -0.77125 17.87 -0.75 19.1875 C-0.6875 23.0625 -0.6875 23.0625 -1.8125 25.3125 C-3.47861905 25.355221 -5.14632885 25.35313832 -6.8125 25.3125 C-8.49766954 23.62733046 -7.94258019 21.52482212 -7.9453125 19.21875 C-7.94724609 17.67380859 -7.94724609 17.67380859 -7.94921875 16.09765625 C-7.94535156 15.01355469 -7.94148437 13.92945313 -7.9375 12.8125 C-7.94136719 11.72839844 -7.94523438 10.64429688 -7.94921875 9.52734375 C-7.94792969 8.49738281 -7.94664062 7.46742187 -7.9453125 6.40625 C-7.94418457 5.45427734 -7.94305664 4.50230469 -7.94189453 3.52148438 C-7.66688183 -1.17344951 -3.94234223 0.07714161 0 0 Z M-1.8125 4.3125 C-1.8125 6.6225 -1.8125 8.9325 -1.8125 11.3125 C0.1675 10.9825 2.1475 10.6525 4.1875 10.3125 C4.5175 8.9925 4.8475 7.6725 5.1875 6.3125 C2.23372502 3.94269987 2.23372502 3.94269987 -1.8125 4.3125 Z " fill="#080105" transform="translate(248.8125,24.6875)"/>
<path d="M0 0 C4.17629812 4.04157883 5.17478362 5.92242251 5.3125 11.75 C5.24938873 17.02610213 4.81182069 20.09044031 1 24 C-4.83166894 28.36316151 -10.04958586 29.28696407 -17.125 28.4375 C-17.95257813 28.31246094 -18.78015625 28.18742187 -19.6328125 28.05859375 C-22.33394108 27.99173413 -23.71531003 28.61549894 -26 30 C-29.33333333 27.33333333 -32.66666667 24.66666667 -36 22 C-32.535 21.505 -32.535 21.505 -29 21 C-29 21.66 -29 22.32 -29 23 C-27.68 22.34 -26.36 21.68 -25 21 C-24.34 21.99 -23.68 22.98 -23 24 C-22.01 23.34 -21.02 22.68 -20 22 C-20.66 21.01 -21.32 20.02 -22 19 C-21.625 16.8125 -21.625 16.8125 -21 15 C-20.5875 15.78375 -20.175 16.5675 -19.75 17.375 C-17.87915378 20.18126933 -17.06355461 20.82086207 -14 22 C-10.8445416 22.26665846 -8.0265906 21.93125865 -5 21 C-2.22226283 18.35453603 -1.15312056 16.5804229 -0.78125 12.7421875 C-0.87924456 10.26782482 -1.13988366 8.32451954 -2 6 C-4.88274079 3.38025574 -4.88274079 3.38025574 -8 2 C-6.1875 1.375 -6.1875 1.375 -4 1 C-3.01 1.66 -2.02 2.32 -1 3 C-0.67 2.01 -0.34 1.02 0 0 Z " fill="#2D7EA8" transform="translate(203,29)"/>
<path d="M0 0 C1.15113281 -0.03738281 2.30226562 -0.07476563 3.48828125 -0.11328125 C6.6875 0.3125 6.6875 0.3125 9.0703125 2.08203125 C11.23042581 5.06131797 11.33315758 6.82675117 11.1328125 10.40625 C10.6875 12.3125 10.6875 12.3125 8.625 14.8125 C5.0832736 16.62104114 2.61306076 16.62038712 -1.3125 16.3125 C-1.3125 19.2825 -1.3125 22.2525 -1.3125 25.3125 C-3.2925 25.3125 -5.2725 25.3125 -7.3125 25.3125 C-7.34136984 21.33334841 -7.35925406 17.35422347 -7.375 13.375 C-7.38337891 12.23869141 -7.39175781 11.10238281 -7.40039062 9.93164062 C-7.40361328 8.85205078 -7.40683594 7.77246094 -7.41015625 6.66015625 C-7.41539307 5.65992432 -7.42062988 4.65969238 -7.42602539 3.62915039 C-7.19794863 -1.02508703 -3.99124357 0.08435331 0 0 Z M-1.3125 4.3125 C-1.3125 6.9525 -1.3125 9.5925 -1.3125 12.3125 C0.3375 11.9825 1.9875 11.6525 3.6875 11.3125 C4.36708603 8.91530568 4.36708603 8.91530568 4.6875 6.3125 C4.0275 5.6525 3.3675 4.9925 2.6875 4.3125 C1.3675 4.3125 0.0475 4.3125 -1.3125 4.3125 Z " fill="#1E1E20" transform="translate(227.3125,24.6875)"/>
<path d="M0 0 C1.39456452 0.00667256 2.78911118 0.01863093 4.18359375 0.03515625 C4.89451172 0.03966797 5.60542969 0.04417969 6.33789062 0.04882812 C8.09899388 0.06064761 9.86005411 0.07858362 11.62109375 0.09765625 C11.62109375 1.41765625 11.62109375 2.73765625 11.62109375 4.09765625 C8.65109375 4.09765625 5.68109375 4.09765625 2.62109375 4.09765625 C2.62109375 5.74765625 2.62109375 7.39765625 2.62109375 9.09765625 C5.26109375 9.42765625 7.90109375 9.75765625 10.62109375 10.09765625 C10.62109375 11.41765625 10.62109375 12.73765625 10.62109375 14.09765625 C7.98109375 14.09765625 5.34109375 14.09765625 2.62109375 14.09765625 C2.62109375 16.07765625 2.62109375 18.05765625 2.62109375 20.09765625 C5.59109375 20.42765625 8.56109375 20.75765625 11.62109375 21.09765625 C11.62109375 22.41765625 11.62109375 23.73765625 11.62109375 25.09765625 C9.14185574 25.1245072 6.66290535 25.14442172 4.18359375 25.16015625 C3.47654297 25.16853516 2.76949219 25.17691406 2.04101562 25.18554688 C0.23415816 25.19419213 -1.57278228 25.14985636 -3.37890625 25.09765625 C-5.06407579 23.41248671 -4.50898644 21.30997837 -4.51171875 19.00390625 C-4.51365234 17.45896484 -4.51365234 17.45896484 -4.515625 15.8828125 C-4.51175781 14.79871094 -4.50789063 13.71460938 -4.50390625 12.59765625 C-4.50777344 11.51355469 -4.51164062 10.42945313 -4.515625 9.3125 C-4.51433594 8.28253906 -4.51304688 7.25257812 -4.51171875 6.19140625 C-4.51059082 5.23943359 -4.50946289 4.28746094 -4.50830078 3.30664062 C-4.29619526 -0.31436085 -3.75242248 0.10845152 0 0 Z " fill="#090A0D" transform="translate(123.37890625,24.90234375)"/>
<path d="M0 0 C0.99 0.66 1.98 1.32 3 2 C3 3.32 3 4.64 3 6 C0.36 5.67 -2.28 5.34 -5 5 C-5 5.99 -5 6.98 -5 8 C-3.26560179 9.43493107 -3.26560179 9.43493107 -1.0625 10.625 C2.97468354 12.97468354 2.97468354 12.97468354 4 14 C4.45601889 18.02816683 4.64306166 20.16401984 2.125 23.4375 C-2.18640142 25.59320071 -6.25095164 25.722864 -11 25 C-11.66 24.34 -12.32 23.68 -13 23 C-13 21.68 -13 20.36 -13 19 C-9.37 19.33 -5.74 19.66 -2 20 C-2 18.68 -2 17.36 -2 16 C-2.886875 15.773125 -3.77375 15.54625 -4.6875 15.3125 C-8.55992593 13.77814256 -10.501601 12.33119866 -13 9 C-13.06983202 5.50839909 -12.67570494 3.81084593 -10.4375 1.125 C-6.76359789 -0.57064713 -4.04112321 -0.32072406 0 0 Z " fill="#383637" transform="translate(91,25)"/>
<path d="M0 0 C1.28583984 0.00580078 1.28583984 0.00580078 2.59765625 0.01171875 C4.9375 0.3125 4.9375 0.3125 7.9375 2.3125 C7.9375 3.6325 7.9375 4.9525 7.9375 6.3125 C7.01517578 6.16941406 7.01517578 6.16941406 6.07421875 6.0234375 C4.86185547 5.85714844 4.86185547 5.85714844 3.625 5.6875 C2.82449219 5.57148438 2.02398437 5.45546875 1.19921875 5.3359375 C-1.34973215 5.09716593 -1.34973215 5.09716593 -4.0625 7.3125 C-4.54124797 9.90548262 -4.54124797 9.90548262 -4.4375 12.8125 C-4.44523437 13.7921875 -4.45296875 14.771875 -4.4609375 15.78125 C-4.32945313 16.6165625 -4.19796875 17.451875 -4.0625 18.3125 C-0.70922361 20.54801759 -0.15506343 20.48533528 3.625 19.9375 C4.43324219 19.82664062 5.24148437 19.71578125 6.07421875 19.6015625 C6.68910156 19.50617187 7.30398437 19.41078125 7.9375 19.3125 C7.5625 21.75 7.5625 21.75 6.9375 24.3125 C3.24790237 26.15729881 -1.02663651 25.66206298 -5.0625 25.3125 C-8.34965357 24.01133504 -9.57103638 23.13160603 -11.375 20.125 C-12.63872774 14.9552047 -12.67059806 10.92395987 -10.8125 6 C-7.88106114 1.49814746 -5.39526333 -0.10578948 0 0 Z " fill="#4F535C" transform="translate(109.0625,24.6875)"/>
<path d="M0 0 C6.27 0 12.54 0 19 0 C19 1.32 19 2.64 19 4 C16.69 4 14.38 4 12 4 C12 10.93 12 17.86 12 25 C10.02 25 8.04 25 6 25 C5.09761253 22.29283758 4.88148698 20.76223232 4.90234375 17.98828125 C4.90556641 17.23095703 4.90878906 16.47363281 4.91210938 15.69335938 C4.92048828 14.90767578 4.92886719 14.12199219 4.9375 13.3125 C4.94201172 12.51521484 4.94652344 11.71792969 4.95117188 10.89648438 C4.9629415 8.93095743 4.98087652 6.96546915 5 5 C3.35 4.67 1.7 4.34 0 4 C0 2.68 0 1.36 0 0 Z " fill="#41413E" transform="translate(311,25)"/>
<path d="M0 0 C2.30859375 1.5234375 2.30859375 1.5234375 4 3 C3.01 3.33 2.02 3.66 1 4 C-0.15811388 5.05270463 -0.15811388 5.05270463 -1 7 C-1.99 6.34 -2.98 5.68 -4 5 C-7.32240324 5.3241369 -8.60776303 5.60776303 -11 8 C-11.28183325 10.53264507 -11.28183325 10.53264507 -11.1875 13.375 C-11.18105469 14.33148438 -11.17460937 15.28796875 -11.16796875 16.2734375 C-11.02057959 18.66594068 -10.67819373 20.71041797 -10 23 C-11.65 23 -13.3 23 -15 23 C-17.87543287 18.20761189 -18.79611959 14.46377968 -18 9 C-16.76391302 5.5519679 -15.63998001 3.58180001 -12.9375 1.125 C-8.69544611 -0.49961639 -4.4848986 -0.74383684 0 0 Z " fill="#303030" transform="translate(349,25)"/>
<path d="M0 0 C3.3 0 6.6 0 10 0 C9.505 1.27875 9.01 2.5575 8.5 3.875 C6.63712651 9.46362047 5.55486479 15.74983001 8.01953125 21.29296875 C8.50486328 22.13794922 8.50486328 22.13794922 9 23 C7.02 23.99 5.04 24.98 3 26 C2.67 24.68 2.34 23.36 2 22 C1.01 22.33 0.02 22.66 -1 23 C-1 22.34 -1 21.68 -1 21 C-1.99 20.67 -2.98 20.34 -4 20 C-3.360625 19.34 -2.72125 18.68 -2.0625 18 C0.64066711 14.06812057 0.84684317 11.74786159 1 7 C0.34 6.01 -0.32 5.02 -1 4 C-0.67 2.68 -0.34 1.36 0 0 Z " fill="#0F74AB" transform="translate(175,29)"/>
<path d="M0 0 C2.42707569 2.26527065 3.79788523 4.66510633 4 8 C2.85213059 10.24356294 1.7904233 12.2095767 0 14 C-3.84500171 14.36273601 -6.17819906 14.51362559 -9.5 12.4375 C-11 10 -11 10 -10.9375 6.4375 C-10 3 -10 3 -8.875 1.0625 C-5.82531829 -0.66565297 -3.41481611 -0.42685201 0 0 Z " fill="#3484AF" transform="translate(168,34)"/>
<path d="M0 0 C2.375 1.625 2.375 1.625 4 4 C4.61195145 7.6717087 4.48706506 9.28813568 2.375 12.375 C-0.71186432 14.48706506 -2.3282913 14.61195145 -6 14 C-8.375 12.375 -8.375 12.375 -10 10 C-10.61195145 6.3282913 -10.48706506 4.71186432 -8.375 1.625 C-5.28813568 -0.48706506 -3.6717087 -0.61195145 0 0 Z " fill="#3A84AB" transform="translate(195,34)"/>
<path d="M0 0 C2 2 2 2 2 6 C3.98 6 5.96 6 8 6 C8 6.66 8 7.32 8 8 C8.99 8.33 9.98 8.66 11 9 C12.16796875 10.9609375 12.16796875 10.9609375 13.1875 13.375 C13.53167969 14.16648437 13.87585938 14.95796875 14.23046875 15.7734375 C15 18 15 18 15 21 C13.02 21 11.04 21 9 21 C8.74605469 20.44570313 8.49210938 19.89140625 8.23046875 19.3203125 C7.88628906 18.59585938 7.54210937 17.87140625 7.1875 17.125 C6.68283203 16.04605469 6.68283203 16.04605469 6.16796875 14.9453125 C5.00532903 12.69457194 5.00532903 12.69457194 2 11 C2.04125 12.27875 2.0825 13.5575 2.125 14.875 C2.1953125 17.0546875 2.1953125 17.0546875 2 19 C1.34 19.66 0.68 20.32 0 21 C-0.66 16.05 -1.32 11.1 -2 6 C-1.34 6 -0.68 6 0 6 C0 4.02 0 2.04 0 0 Z " fill="#292C35" transform="translate(246,29)"/>
<path d="M0 0 C1.134375 0.020625 2.26875 0.04125 3.4375 0.0625 C3.7675 2.0425 4.0975 4.0225 4.4375 6.0625 C3.4475 5.7325 2.4575 5.4025 1.4375 5.0625 C1.1075 11.6625 0.7775 18.2625 0.4375 25.0625 C-1.2125 25.0625 -2.8625 25.0625 -4.5625 25.0625 C-4.59136984 21.08334841 -4.60925406 17.10422347 -4.625 13.125 C-4.63337891 11.98869141 -4.64175781 10.85238281 -4.65039062 9.68164062 C-4.65361328 8.60205078 -4.65683594 7.52246094 -4.66015625 6.41015625 C-4.66539307 5.40992432 -4.67062988 4.40969238 -4.67602539 3.37915039 C-4.48993261 -0.41834298 -3.95541169 0.06939319 0 0 Z " fill="#2A2526" transform="translate(48.5625,24.9375)"/>
<path d="M0 0 C1.299375 -0.02126953 1.299375 -0.02126953 2.625 -0.04296875 C5 0.1875 5 0.1875 8 2.1875 C7.67 3.1775 7.34 4.1675 7 5.1875 C6.09507812 5.13529297 6.09507812 5.13529297 5.171875 5.08203125 C3.97304688 5.04142578 3.97304688 5.04142578 2.75 5 C1.56664062 4.94779297 1.56664062 4.94779297 0.359375 4.89453125 C-2.64297187 5.26733922 -3.9020577 6.01463119 -6 8.1875 C-6.6950739 10.68157252 -6.6950739 10.68157252 -6.75 13.375 C-6.80671875 14.27605469 -6.8634375 15.17710938 -6.921875 16.10546875 C-6.94765625 16.79253906 -6.9734375 17.47960937 -7 18.1875 C-7.99 18.1875 -8.98 18.1875 -10 18.1875 C-10 17.5275 -10 16.8675 -10 16.1875 C-10.66 16.1875 -11.32 16.1875 -12 16.1875 C-12.62518714 7.24385068 -12.62518714 7.24385068 -10.1875 3.125 C-6.91991401 0.23085241 -4.21212513 0.03134022 0 0 Z " fill="#212022" transform="translate(276,24.8125)"/>
<path d="M0 0 C1.99954746 -0.04254356 4.00041636 -0.04080783 6 0 C7 1 7 1 7.11352539 3.31665039 C7.10828857 4.31688232 7.10305176 5.31711426 7.09765625 6.34765625 C7.09443359 7.42724609 7.09121094 8.50683594 7.08789062 9.61914062 C7.07951172 10.75544922 7.07113281 11.89175781 7.0625 13.0625 C7.05798828 14.20267578 7.05347656 15.34285156 7.04882812 16.51757812 C7.03699747 19.34510351 7.0205141 22.1725264 7 25 C5.35 25 3.7 25 2 25 C2 18.07 2 11.14 2 4 C1.01 4 0.02 4 -1 4 C-0.67 2.68 -0.34 1.36 0 0 Z " fill="#030107" transform="translate(68,25)"/>
<path d="M0 0 C3.58813669 0.20721762 4.78863842 0.56742561 7.875 2.625 C7.875 3.945 7.875 5.265 7.875 6.625 C7.27171875 6.51800781 6.6684375 6.41101563 6.046875 6.30078125 C5.24765625 6.18089844 4.4484375 6.06101562 3.625 5.9375 C2.83609375 5.80988281 2.0471875 5.68226562 1.234375 5.55078125 C-1.18792078 5.46610783 -1.18792078 5.46610783 -3.375 6.71875 C-5.79841522 9.35854158 -5.72288846 11.27590664 -5.875 14.8125 C-5.93171875 15.89917969 -5.9884375 16.98585938 -6.046875 18.10546875 C-6.07265625 18.93691406 -6.0984375 19.76835938 -6.125 20.625 C-8.6875 18.5625 -8.6875 18.5625 -11.125 15.625 C-11.31533728 10.58106202 -9.60373415 6.33469371 -6.85546875 2.16796875 C-4.54745319 0.11003162 -3.06091568 0.05809037 0 0 Z " fill="#303236" transform="translate(109.125,24.375)"/>
<path d="M0 0 C1.21236328 0.04060547 1.21236328 0.04060547 2.44921875 0.08203125 C3.06410156 0.11683594 3.67898437 0.15164062 4.3125 0.1875 C4.3125 1.5075 4.3125 2.8275 4.3125 4.1875 C1.3425 4.1875 -1.6275 4.1875 -4.6875 4.1875 C-4.6875 5.8375 -4.6875 7.4875 -4.6875 9.1875 C-2.0475 9.5175 0.5925 9.8475 3.3125 10.1875 C3.3125 11.5075 3.3125 12.8275 3.3125 14.1875 C0.6725 14.1875 -1.9675 14.1875 -4.6875 14.1875 C-4.6875 16.1675 -4.6875 18.1475 -4.6875 20.1875 C-5.3475 20.5175 -6.0075 20.8475 -6.6875 21.1875 C-6.93599534 18.25046475 -7.16198285 15.31463668 -7.375 12.375 C-7.44783203 11.54162109 -7.52066406 10.70824219 -7.59570312 9.84960938 C-7.67788086 8.64594727 -7.67788086 8.64594727 -7.76171875 7.41796875 C-7.81932373 6.67957764 -7.87692871 5.94118652 -7.9362793 5.18041992 C-7.6875 3.1875 -7.6875 3.1875 -6.32421875 1.44140625 C-4.12666468 -0.24216143 -2.73290723 -0.11882205 0 0 Z " fill="#242831" transform="translate(130.6875,24.8125)"/>
<path d="M0 0 C-0.5260925 3.78786597 -1.38103911 6.17152224 -4 9 C-4.66 9 -5.32 9 -6 9 C-6.33 10.32 -6.66 11.64 -7 13 C-7.99 12.34 -8.98 11.68 -10 11 C-11.65549531 10.61500109 -13.3222433 10.27206865 -15 10 C-14.43736042 6.49490749 -13.34814818 5.04731992 -10.625 2.8125 C-10.01914063 2.30332031 -9.41328125 1.79414063 -8.7890625 1.26953125 C-5.5951005 -0.9969265 -3.61234531 -1.12107268 0 0 Z " fill="#0770A9" transform="translate(209,20)"/>
<path d="M0 0 C0.33 0 0.66 0 1 0 C1.33 2.31 1.66 4.62 2 7 C4.97 7.33 7.94 7.66 11 8 C11 9.65 11 11.3 11 13 C8.03 12.505 8.03 12.505 5 12 C5 14.97 5 17.94 5 21 C3.35 21.33 1.7 21.66 0 22 C0 14.74 0 7.48 0 0 Z " fill="#19171D" transform="translate(361,28)"/>
<path d="M0 0 C11.43735588 -0.36894696 11.43735588 -0.36894696 13.90625 1.25 C15.9049042 4.44784672 14.64509503 7.42265484 14 11 C13.01 11 12.02 11 11 11 C11 9.35 11 7.7 11 6 C8.36 5.34 5.72 4.68 3 4 C2.67 7.3 2.34 10.6 2 14 C1.67 14 1.34 14 1 14 C0.67 9.38 0.34 4.76 0 0 Z " fill="#14141A" transform="translate(222,25)"/>
<path d="M0 0 C0.680625 -0.00515625 1.36125 -0.0103125 2.0625 -0.015625 C4 0.25 4 0.25 7 2.25 C7 3.57 7 4.89 7 6.25 C4.36 5.92 1.72 5.59 -1 5.25 C-1 6.24 -1 7.23 -1 8.25 C-1 9.57 -1 10.89 -1 12.25 C-2.65 11.92 -4.3 11.59 -6 11.25 C-6.91004613 8.17859432 -7.33694826 5.45100846 -7 2.25 C-4.00261059 0.25174039 -3.36652492 -0.02550398 0 0 Z " fill="#2A2A2F" transform="translate(87,24.75)"/>
<path d="M0 0 C9.00105708 -0.61839323 9.00105708 -0.61839323 12.625 1.625 C14.36781772 4.63532152 14.37252607 6.57276017 14 10 C13.67 10.66 13.34 11.32 13 12 C11.35 12 9.7 12 8 12 C7.938125 11.05125 7.87625 10.1025 7.8125 9.125 C7.544375 8.09375 7.27625 7.0625 7 6 C4.57616923 4.83046584 4.57616923 4.83046584 2 4 C0.83984375 1.9453125 0.83984375 1.9453125 0 0 Z " fill="#1E222D" transform="translate(246,25)"/>
<path d="M0 0 C-1 3 -1 3 -4 5 C-3.67 5.66 -3.34 6.32 -3 7 C-6.96 8.32 -10.92 9.64 -15 11 C-15 10.01 -15 9.02 -15 8 C-18.3 7.34 -21.6 6.68 -25 6 C-25 5.67 -25 5.34 -25 5 C-23.83082031 4.80664062 -22.66164062 4.61328125 -21.45703125 4.4140625 C-19.90880468 4.15133314 -18.3606303 3.88829608 -16.8125 3.625 C-16.04357422 3.49867187 -15.27464844 3.37234375 -14.48242188 3.2421875 C-9.60334987 2.40457857 -4.8385744 0 0 0 Z " fill="#2C7FAC" transform="translate(199,22)"/>
<path d="M0 0 C0.66 0 1.32 0 2 0 C1.67 1.32 1.34 2.64 1 4 C1.99 4 2.98 4 4 4 C4 10.93 4 17.86 4 25 C2 23 2 23 1.8046875 19.9609375 C1.82789062 18.77757813 1.85109375 17.59421875 1.875 16.375 C1.89304687 15.18648437 1.91109375 13.99796875 1.9296875 12.7734375 C1.95289062 11.85820313 1.97609375 10.94296875 2 10 C1.01 11.485 1.01 11.485 0 13 C-0.33 12.01 -0.66 11.02 -1 10 C-1.4021875 11.2065625 -1.4021875 11.2065625 -1.8125 12.4375 C-2.4003125 13.7059375 -2.4003125 13.7059375 -3 15 C-3.99 15.33 -4.98 15.66 -6 16 C-2.97545334 3.75165856 -2.97545334 3.75165856 0 0 Z " fill="#665F54" transform="translate(66,25)"/>
<path d="M0 0 C0.66 0 1.32 0 2 0 C2 4.95 2 9.9 2 15 C2.66 15 3.32 15 4 15 C3.67 15.99 3.34 16.98 3 18 C0.13275314 17.42655063 -0.8614515 17.1385485 -3 15 C-3.63433406 10.34547089 -3.52127974 6.18472669 -1.625 1.875 C-1.08875 1.25625 -0.5525 0.6375 0 0 Z " fill="#010314" transform="translate(294,30)"/>
<path d="M0 0 C1 1 1 1 1.09765625 2.84765625 C1.04882812 5.92382812 1.04882812 5.92382812 1 9 C-5.15234375 9.09765625 -5.15234375 9.09765625 -7 9 C-8 8 -8 8 -8.0625 4.4375 C-8.041875 3.303125 -8.02125 2.16875 -8 1 C-5.26752652 -0.36623674 -3.01801098 -0.128426 0 0 Z " fill="#0470AE" transform="translate(195,36)"/>
<path d="M0 0 C0.33 0 0.66 0 1 0 C1 1.98 1 3.96 1 6 C3.93443402 5.73343428 3.93443402 5.73343428 7 5 C7.66 4.01 8.32 3.02 9 2 C10.88391785 5.26545761 11.49287967 8.28111761 12 12 C8.37 11.34 4.74 10.68 1 10 C1 12.31 1 14.62 1 17 C0.67 17 0.34 17 0 17 C-0.91267484 10.95352922 -0.91267484 6.04647078 0 0 Z " fill="#1B1C23" transform="translate(27,29)"/>
<path d="M0 0 C0.33 0 0.66 0 1 0 C1.48736475 6.70126536 0.07708804 11.06561592 -3 17 C-4.65 17 -6.3 17 -8 17 C-7.67 15.35 -7.34 13.7 -7 12 C-7.66 12 -8.32 12 -9 12 C-8.67 11.01 -8.34 10.02 -8 9 C-7.01 9.33 -6.02 9.66 -5 10 C-4.67 9.01 -4.34 8.02 -4 7 C-3.34 7 -2.68 7 -2 7 C-1.855625 6.21625 -1.71125 5.4325 -1.5625 4.625 C-1 2 -1 2 0 0 Z " fill="#1A1D24" transform="translate(65,33)"/>
<path d="M0 0 C0.33 1.32 0.66 2.64 1 4 C0.34 4 -0.32 4 -1 4 C-1 9.61 -1 15.22 -1 21 C-4 20 -4 20 -5.1875 17.9375 C-6.64574179 12.66539505 -6.6111505 8.60063226 -4.6875 3.5625 C-3 1 -3 1 0 0 Z " fill="#392E29" transform="translate(337,27)"/>
<path d="M0 0 C2.12280563 3.18420845 2.28019537 4.20537255 2.4140625 7.88671875 C2.45273438 8.82451172 2.49140625 9.76230469 2.53125 10.72851562 C2.57765625 12.19321289 2.57765625 12.19321289 2.625 13.6875 C2.68300781 15.16959961 2.68300781 15.16959961 2.7421875 16.68164062 C2.83645867 19.12090707 2.92206218 21.56016595 3 24 C1.68 24 0.36 24 -1 24 C-1.02887236 20.18751574 -1.04675492 16.3750593 -1.0625 12.5625 C-1.07087891 11.47388672 -1.07925781 10.38527344 -1.08789062 9.26367188 C-1.09111328 8.22919922 -1.09433594 7.19472656 -1.09765625 6.12890625 C-1.10289307 5.17056885 -1.10812988 4.21223145 -1.11352539 3.22485352 C-1 1 -1 1 0 0 Z " fill="#594B42" transform="translate(120,25)"/>
<path d="M0 0 C0.99 0 1.98 0 3 0 C3 1.32 3 2.64 3 4 C2.01 4.495 2.01 4.495 1 5 C-0.13350534 7.01669827 -0.13350534 7.01669827 -1 9 C-2.62463842 9.05395478 -4.24978541 9.09277195 -5.875 9.125 C-6.77992187 9.14820313 -7.68484375 9.17140625 -8.6171875 9.1953125 C-11 9 -11 9 -13 7 C-13 5.68 -13 4.36 -13 3 C-9.04 3.33 -5.08 3.66 -1 4 C-0.67 2.68 -0.34 1.36 0 0 Z " fill="#1E1D1D" transform="translate(91,41)"/>
<path d="M0 0 C0.33 0 0.66 0 1 0 C1.03738281 0.68707031 1.07476562 1.37414063 1.11328125 2.08203125 C1.17902344 2.98308594 1.24476563 3.88414063 1.3125 4.8125 C1.39951172 6.15248047 1.39951172 6.15248047 1.48828125 7.51953125 C2.06313581 10.30604 2.8206856 11.24135754 5 13 C4.01 13.495 4.01 13.495 3 14 C3 14.99 3 15.98 3 17 C-0.80872749 16.15361611 -2.56927964 15.60300851 -4.875 12.375 C-6.23832776 8.28501673 -6.2217774 5.28769639 -6 1 C-5.67 1 -5.34 1 -5 1 C-5 3.31 -5 5.62 -5 8 C-4.34 8 -3.68 8 -3 8 C-3 8.66 -3 9.32 -3 10 C-2.34 9.67 -1.68 9.34 -1 9 C-0.53348793 6.87423218 -0.53348793 6.87423218 -0.375 4.4375 C-0.30023438 3.61121094 -0.22546875 2.78492188 -0.1484375 1.93359375 C-0.09945313 1.29550781 -0.05046875 0.65742187 0 0 Z " fill="#564A41" transform="translate(269,33)"/>
<path d="M0 0 C0.639375 0.680625 1.27875 1.36125 1.9375 2.0625 C6.18338074 4.74866944 9.23417088 3.95524244 14 3 C13.625 5.4375 13.625 5.4375 13 8 C10.52224905 9.23887548 8.76346293 9.16741669 6 9.1875 C4.6696875 9.20876953 4.6696875 9.20876953 3.3125 9.23046875 C1 9 1 9 -1 7 C-0.01 6.01 0.98 5.02 2 4 C1.34 4 0.68 4 0 4 C0 2.68 0 1.36 0 0 Z " fill="#323438" transform="translate(296,41)"/>
<path d="M0 0 C0 0.66 0 1.32 0 2 C1.32 1.34 2.64 0.68 4 0 C4.66 0.99 5.32 1.98 6 3 C9.05429073 4.21284876 9.05429073 4.21284876 12 5 C12 5.33 12 5.66 12 6 C8.38026598 7.31626692 5.90432869 8 2 8 C-0.359375 6.6875 -0.359375 6.6875 -2.75 5 C-3.54921875 4.443125 -4.3484375 3.88625 -5.171875 3.3125 C-5.77515625 2.879375 -6.3784375 2.44625 -7 2 C-4 0 -4 0 0 0 Z " fill="#237BA7" transform="translate(174,50)"/>
<path d="M0 0 C2.31 0 4.62 0 7 0 C7.33 1.65 7.66 3.3 8 5 C7.01 5.66 6.02 6.32 5 7 C4.67 7.99 4.34 8.98 4 10 C2.35 9.67 0.7 9.34 -1 9 C-0.67 6.03 -0.34 3.06 0 0 Z " fill="#0870AB" transform="translate(160,35)"/>
<path d="M0 0 C0.33 0.66 0.66 1.32 1 2 C1.66 2 2.32 2 3 2 C3.77040851 8.06696699 4.09706112 13.88514973 4 20 C2.68 20 1.36 20 0 20 C0 13.4 0 6.8 0 0 Z " fill="#030103" transform="translate(318,30)"/>
<path d="M0 0 C3.07692057 2.76922851 4.77800007 5.02850024 6 9 C6 9.99 6 10.98 6 12 C4.02 12 2.04 12 0 12 C-1.66666667 8.66666667 -3.33333333 5.33333333 -5 2 C-3.33333333 2 -1.66666667 2 0 2 C0 1.34 0 0.68 0 0 Z " fill="#373539" transform="translate(255,38)"/>
<path d="M0 0 C1.32 0.66 2.64 1.32 4 2 C3.236875 2.20625 2.47375 2.4125 1.6875 2.625 C-1.82229103 4.42070704 -2.52599781 6.43136312 -4 10 C-4.66 8.68 -5.32 7.36 -6 6 C-6.66 6 -7.32 6 -8 6 C-7.85915204 7.79206547 -7.71216299 9.58364917 -7.5625 11.375 C-7.44068359 12.87160156 -7.44068359 12.87160156 -7.31640625 14.3984375 C-7.15034374 16.97927613 -7.15034374 16.97927613 -6 19 C-6.66 19.66 -7.32 20.32 -8 21 C-10.64294635 16.44065431 -10.5488705 12.14774002 -10 7 C-8.6875 3.875 -8.6875 3.875 -7 2 C-4.66666667 2 -2.33333333 2 0 2 C0 1.34 0 0.68 0 0 Z " fill="#4D93B6" transform="translate(158,29)"/>
<path d="M0 0 C1.32 0 2.64 0 4 0 C4.25 2.3125 4.25 2.3125 4 5 C1.70029497 7.34309569 0.51592714 7.9863092 -2.796875 8.07421875 C-3.77140625 7.94660156 -4.7459375 7.81898437 -5.75 7.6875 C-6.73484375 7.56761719 -7.7196875 7.44773437 -8.734375 7.32421875 C-9.85585937 7.16373047 -9.85585937 7.16373047 -11 7 C-11 6.34 -11 5.68 -11 5 C-10.37351563 4.80664062 -9.74703125 4.61328125 -9.1015625 4.4140625 C-8.28429687 4.15367188 -7.46703125 3.89328125 -6.625 3.625 C-5.81289062 3.36976562 -5.00078125 3.11453125 -4.1640625 2.8515625 C-1.83540815 2.10145717 -1.83540815 2.10145717 0 0 Z " fill="#3181AB" transform="translate(200,48)"/>
<path d="M0 0 C0.598125 0.20625 1.19625 0.4125 1.8125 0.625 C1.4825 1.65625 1.1525 2.6875 0.8125 3.75 C-0.1590192 7.10926709 -0.35866771 10.11606202 -0.1875 13.625 C-1.1775 13.625 -2.1675 13.625 -3.1875 13.625 C-3.1875 12.965 -3.1875 12.305 -3.1875 11.625 C-3.8475 11.625 -4.5075 11.625 -5.1875 11.625 C-5.26840971 10.00081255 -5.32664995 8.37548255 -5.375 6.75 C-5.40980469 5.84507813 -5.44460938 4.94015625 -5.48046875 4.0078125 C-5.38378906 3.22148438 -5.28710938 2.43515625 -5.1875 1.625 C-2.1875 -0.375 -2.1875 -0.375 0 0 Z " fill="#12090A" transform="translate(269.1875,29.375)"/>
<path d="M0 0 C2.0625 0.4375 2.0625 0.4375 4 1 C4.05429959 2.74965358 4.09292823 4.49979787 4.125 6.25 C4.14820313 7.22453125 4.17140625 8.1990625 4.1953125 9.203125 C3.99862781 12.0196498 3.44568916 13.60949036 2 16 C1.34 16 0.68 16 0 16 C0 16.66 0 17.32 0 18 C-0.66 17.67 -1.32 17.34 -2 17 C-1.649375 16.21625 -1.29875 15.4325 -0.9375 14.625 C0.14680985 10.43233523 -0.20676359 7.31237006 -0.80859375 3.07421875 C-0.87175781 2.38972656 -0.93492187 1.70523437 -1 1 C-0.67 0.67 -0.34 0.34 0 0 Z " fill="#392E2A" transform="translate(349,27)"/>
<path d="M0 0 C2 1 2 1 2.8125 2.75 C3.0809518 5.97142164 1.88405468 7.44306864 0 10 C-0.99 10.66 -1.98 11.32 -3 12 C-3.99 11.67 -4.98 11.34 -6 11 C-6 7.88772805 -5.54372951 5.05847848 -5 2 C-3.35 2.33 -1.7 2.66 0 3 C0 2.01 0 1.02 0 0 Z " fill="#313337" transform="translate(39,38)"/>
<path d="M0 0 C-0.375 2.4375 -0.375 2.4375 -1 5 C-3.52475462 6.26237731 -5.31200466 6.09856404 -8.125 6.0625 C-9.03507812 6.05347656 -9.94515625 6.04445313 -10.8828125 6.03515625 C-11.58148438 6.02355469 -12.28015625 6.01195312 -13 6 C-13.33 4.68 -13.66 3.36 -14 2 C-13.06027344 1.90912109 -13.06027344 1.90912109 -12.1015625 1.81640625 C-10.87566406 1.69072266 -10.87566406 1.69072266 -9.625 1.5625 C-8.81289062 1.48128906 -8.00078125 1.40007813 -7.1640625 1.31640625 C-4.39098241 0.91095591 -2.91201214 0 0 0 Z " fill="#232528" transform="translate(117,44)"/>
<path d="M0 0 C0.33 0 0.66 0 1 0 C2.80862208 8.59095487 2.27866543 16.57707601 0 25 C-0.33 25 -0.66 25 -1 25 C-1.02886984 21.02084841 -1.04675406 17.04172347 -1.0625 13.0625 C-1.07087891 11.92619141 -1.07925781 10.78988281 -1.08789062 9.61914062 C-1.09111328 8.53955078 -1.09433594 7.45996094 -1.09765625 6.34765625 C-1.10289307 5.34742432 -1.10812988 4.34719238 -1.11352539 3.31665039 C-1 1 -1 1 0 0 Z " fill="#63544F" transform="translate(221,25)"/>
<path d="M0 0 C0.66 0 1.32 0 2 0 C2 0.66 2 1.32 2 2 C1.01 2.33 0.02 2.66 -1 3 C-0.67 2.01 -0.34 1.02 0 0 Z M-2 3 C0.26273207 6.55818936 0.07331744 9.12547951 -0.375 13.25 C-0.48585938 14.32765625 -0.59671875 15.4053125 -0.7109375 16.515625 C-0.80632812 17.33546875 -0.90171875 18.1553125 -1 19 C-3.5625 16.9375 -3.5625 16.9375 -6 14 C-6 9.35973266 -5.14966379 6.42354759 -2 3 Z " fill="#040106" transform="translate(104,26)"/>
<path d="M0 0 C0.66 0.33 1.32 0.66 2 1 C2 8.92 2 16.84 2 25 C1.34 25 0.68 25 0 25 C-2.52252252 5.04504505 -2.52252252 5.04504505 0 0 Z " fill="#576373" transform="translate(73,25)"/>
<path d="M0 0 C1.21236328 0.04060547 1.21236328 0.04060547 2.44921875 0.08203125 C3.06410156 0.11683594 3.67898437 0.15164062 4.3125 0.1875 C4.3125 1.5075 4.3125 2.8275 4.3125 4.1875 C1.3425 4.1875 -1.6275 4.1875 -4.6875 4.1875 C-4.6875 6.1675 -4.6875 8.1475 -4.6875 10.1875 C-5.3475 10.1875 -6.0075 10.1875 -6.6875 10.1875 C-7.375 6.875 -7.375 6.875 -7.6875 3.1875 C-5.513217 0.04051145 -3.69350641 -0.16058724 0 0 Z " fill="#191D21" transform="translate(130.6875,24.8125)"/>
<path d="M0 0 C4.83628305 0.99043705 9.47618873 1.95698846 14 4 C10.81932587 5.88484393 8.65563791 6.09139095 5 6 C3.88625 6.2784375 3.88625 6.2784375 2.75 6.5625 C2.1725 6.706875 1.595 6.85125 1 7 C0 6 0 6 -0.0625 2.9375 C-0.041875 1.968125 -0.02125 0.99875 0 0 Z " fill="#0B6FA1" transform="translate(148,19)"/>
<path d="M0 0 C1.125 4.75 1.125 4.75 0 7 C-1.97888961 7.72693904 -3.97954558 8.39816251 -6 9 C-6.66 6.69 -7.32 4.38 -8 2 C-4.77208445 -0.1519437 -3.71599191 -0.20086443 0 0 Z " fill="#1578AE" transform="translate(158,24)"/>
<path d="M0 0 C0.66 0.33 1.32 0.66 2 1 C2.05787784 4.62493334 2.0935542 8.24974857 2.125 11.875 C2.15013672 13.42380859 2.15013672 13.42380859 2.17578125 15.00390625 C2.18222656 15.99003906 2.18867188 16.97617187 2.1953125 17.9921875 C2.20578613 18.90339355 2.21625977 19.81459961 2.22705078 20.75341797 C2 23 2 23 0 25 C-1.68516954 23.31483046 -1.13008019 21.21232212 -1.1328125 18.90625 C-1.13474609 17.36130859 -1.13474609 17.36130859 -1.13671875 15.78515625 C-1.13285156 14.70105469 -1.12898438 13.61695313 -1.125 12.5 C-1.12886719 11.41589844 -1.13273437 10.33179688 -1.13671875 9.21484375 C-1.13542969 8.18488281 -1.13414063 7.15492187 -1.1328125 6.09375 C-1.13168457 5.14177734 -1.13055664 4.18980469 -1.12939453 3.20898438 C-1 1 -1 1 0 0 Z " fill="#6C5B54" transform="translate(23,25)"/>
<path d="M0 0 C1.88372214 3.17596839 2.20001885 5.31969081 1.9765625 8.984375 C1.925 9.91894531 1.8734375 10.85351562 1.8203125 11.81640625 C1.75585938 12.78449219 1.69140625 13.75257812 1.625 14.75 C1.56828125 15.73355469 1.5115625 16.71710937 1.453125 17.73046875 C1.31192448 20.154411 1.16054205 22.57727459 1 25 C0.34 24.67 -0.32 24.34 -1 24 C-1.02887236 20.18751574 -1.04675492 16.3750593 -1.0625 12.5625 C-1.07087891 11.47388672 -1.07925781 10.38527344 -1.08789062 9.26367188 C-1.09111328 8.22919922 -1.09433594 7.19472656 -1.09765625 6.12890625 C-1.10289307 5.17056885 -1.10812988 4.21223145 -1.11352539 3.22485352 C-1 1 -1 1 0 0 Z " fill="#806F61" transform="translate(242,25)"/>
<path d="M0 0 C0.66 0 1.32 0 2 0 C4.29000017 4.43687532 4.8156279 9.09746244 4 14 C2.48046875 16.27734375 2.48046875 16.27734375 1 18 C0.93941406 17.10796875 0.87882812 16.2159375 0.81640625 15.296875 C0.73261719 14.12640625 0.64882813 12.9559375 0.5625 11.75 C0.48128906 10.58984375 0.40007812 9.4296875 0.31640625 8.234375 C0.09350711 5.12133032 0.09350711 5.12133032 -0.59765625 2.640625 C-0.73042969 2.09921875 -0.86320312 1.5578125 -1 1 C-0.67 0.67 -0.34 0.34 0 0 Z " fill="#343F4E" transform="translate(284,28)"/>
<path d="M0 0 C-0.4793247 4.31392226 -1.7457985 6.16569547 -5 9 C-6.0625 6.625 -6.0625 6.625 -7 4 C-6.67 3.34 -6.34 2.68 -6 2 C-6.99 1.67 -7.98 1.34 -9 1 C-5.57367167 -0.61798838 -3.61944899 -1.34053666 0 0 Z " fill="#4191B9" transform="translate(209,20)"/>
<path d="M0 0 C0.66 0 1.32 0 2 0 C3.39935013 2.79870027 3.25265405 4.90498792 3 8 C1.625 9.875 1.625 9.875 0 11 C-0.66 11 -1.32 11 -2 11 C-2 11.66 -2 12.32 -2 13 C-2.66 13 -3.32 13 -4 13 C-3.67 11.35 -3.34 9.7 -3 8 C-2.01 7.67 -1.02 7.34 0 7 C-0.2784375 5.824375 -0.2784375 5.824375 -0.5625 4.625 C-1 2 -1 2 0 0 Z " fill="#232A36" transform="translate(375,27)"/>
<path d="M0 0 C3.3 0 6.6 0 10 0 C9.01 0.495 9.01 0.495 8 1 C8 1.66 8 2.32 8 3 C8.66 3 9.32 3 10 3 C9.67 5.31 9.34 7.62 9 10 C8.34 9.67 7.68 9.34 7 9 C7 8.01 7 7.02 7 6 C6.21625 5.7525 5.4325 5.505 4.625 5.25 C2 4 2 4 0 0 Z " fill="#24211F" transform="translate(246,25)"/>
<path d="M0 0 C1.65 0 3.3 0 5 0 C5 3.63 5 7.26 5 11 C3.68 10.67 2.36 10.34 1 10 C0.67 6.7 0.34 3.4 0 0 Z " fill="#262933" transform="translate(361,25)"/>
<path d="M0 0 C1.65 0 3.3 0 5 0 C5 0.99 5 1.98 5 3 C4.01 3 3.02 3 2 3 C2.66 9.27 3.32 15.54 4 22 C3.01 21.67 2.02 21.34 1 21 C0.67 14.07 0.34 7.14 0 0 Z " fill="#050205" transform="translate(121,25)"/>
<path d="M0 0 C0 0.66 0 1.32 0 2 C-1.32 2 -2.64 2 -4 2 C-4 2.66 -4 3.32 -4 4 C-3.34 4.66 -2.68 5.32 -2 6 C-3.65 6.66 -5.3 7.32 -7 8 C-7 7.01 -7 6.02 -7 5 C-10.3 4.34 -13.6 3.68 -17 3 C-17 2.67 -17 2.34 -17 2 C-14.91727106 1.66291092 -12.83378963 1.33046884 -10.75 1 C-9.58984375 0.814375 -8.4296875 0.62875 -7.234375 0.4375 C-4 0 -4 0 0 0 Z " fill="#4D92B6" transform="translate(191,25)"/>
<path d="M0 0 C1.65 0 3.3 0 5 0 C4.67 4.29 4.34 8.58 4 13 C3.67 13 3.34 13 3 13 C3 9.37 3 5.74 3 2 C-0.21227702 3.6712636 -0.21227702 3.6712636 -0.73046875 6.6015625 C-0.88128906 7.59929688 -1.03210938 8.59703125 -1.1875 9.625 C-1.34605469 10.62789062 -1.50460937 11.63078125 -1.66796875 12.6640625 C-1.77753906 13.43492188 -1.88710938 14.20578125 -2 15 C-2.33 15 -2.66 15 -3 15 C-3.46070947 6.21239335 -3.46070947 6.21239335 -1.8125 1.875 C-1.214375 1.25625 -0.61625 0.6375 0 0 Z " fill="#757372" transform="translate(293,28)"/>
<path d="M0 0 C2.89726589 2.89726589 2.99003433 4.79404278 3.1875 8.875 C3.15581093 12.31009496 2.55421259 14.89157482 1 18 C-1.51005664 14.23491505 -1.0258295 11.60538391 -0.625 7.3125 C-0.56828125 6.61060547 -0.5115625 5.90871094 -0.453125 5.18554688 C-0.31195359 3.45619715 -0.15728041 1.72795912 0 0 Z " fill="#192132" transform="translate(353,28)"/>
<path d="M0 0 C0.144375 0.804375 0.28875 1.60875 0.4375 2.4375 C0.74135249 4.92103706 0.74135249 4.92103706 2 6 C1.82364548 8.69082872 1.38164079 11.32851446 1 14 C0.67 14 0.34 14 0 14 C-0.10957031 13.38511719 -0.21914062 12.77023438 -0.33203125 12.13671875 C-0.56986328 10.92435547 -0.56986328 10.92435547 -0.8125 9.6875 C-1.03873047 8.48673828 -1.03873047 8.48673828 -1.26953125 7.26171875 C-2.49023021 3.48212143 -4.75093274 2.16604484 -8 0 C-4.94736336 -0.98120464 -3.05263664 -0.98120464 0 0 Z " fill="#3987B2" transform="translate(175,30)"/>
<path d="M0 0 C0.66 0 1.32 0 2 0 C1.98839844 0.89203125 1.97679687 1.7840625 1.96484375 2.703125 C1.95582031 3.87359375 1.94679688 5.0440625 1.9375 6.25 C1.92589844 7.41015625 1.91429687 8.5703125 1.90234375 9.765625 C1.98217908 12.40977128 2.21356222 14.49826091 3 17 C2.01 17 1.02 17 0 17 C-1.07957377 13.76127868 -1.13326784 11.33971795 -1.125 7.9375 C-1.12757813 6.87402344 -1.13015625 5.81054688 -1.1328125 4.71484375 C-1 2 -1 2 0 0 Z " fill="#020513" transform="translate(336,31)"/>
<path d="M0 0 C1.32 1.32 2.64 2.64 4 4 C2.768606 6.46278801 1.21935077 7.42497687 -1 9 C-1.4125 8.236875 -1.825 7.47375 -2.25 6.6875 C-3.95875809 4.0633358 -5.41017753 2.69678024 -8 1 C-2.125 1.875 -2.125 1.875 -1 3 C-0.67 2.01 -0.34 1.02 0 0 Z " fill="#428EB5" transform="translate(203,29)"/>
<path d="M0 0 C1.93681161 -0.08107583 3.8745934 -0.13922475 5.8125 -0.1875 C6.89144531 -0.22230469 7.97039062 -0.25710937 9.08203125 -0.29296875 C12 0 12 0 13.88671875 1.51171875 C14.25410156 2.00285156 14.62148437 2.49398437 15 3 C13.06318839 3.08107583 11.1254066 3.13922475 9.1875 3.1875 C8.10855469 3.22230469 7.02960938 3.25710937 5.91796875 3.29296875 C3 3 3 3 1.11328125 1.48828125 C0.56220703 0.75158203 0.56220703 0.75158203 0 0 Z " fill="#1070A3" transform="translate(157,52)"/>
<path d="M0 0 C0 3.96 0 7.92 0 12 C-0.99 12 -1.98 12 -3 12 C-3 8.37 -3 4.74 -3 1 C-1 0 -1 0 0 0 Z " fill="#0F6C9F" transform="translate(153,34)"/>
<path d="M0 0 C1.65 0.33 3.3 0.66 5 1 C4.01 1.495 4.01 1.495 3 2 C3 2.66 3 3.32 3 4 C3.66 4 4.32 4 5 4 C5 5.98 5 7.96 5 10 C4.34 8.68 3.68 7.36 3 6 C2.01 6.33 1.02 6.66 0 7 C0 6.34 0 5.68 0 5 C-0.99 4.67 -1.98 4.34 -3 4 C-2.01 2.68 -1.02 1.36 0 0 Z " fill="#247EB0" transform="translate(174,45)"/>
<path d="M0 0 C4.39158329 1.4638611 4.87947433 3.97831338 7 8 C5.02 8.99 5.02 8.99 3 10 C2.67 8.35 2.34 6.7 2 5 C1.34 5 0.68 5 0 5 C0 3.35 0 1.7 0 0 Z " fill="#0471AD" transform="translate(177,44)"/>
<path d="M0 0 C1.32 1.32 2.64 2.64 4 4 C3.67 4.99 3.34 5.98 3 7 C1.68 6.34 0.36 5.68 -1 5 C-1.33 5.99 -1.66 6.98 -2 8 C-2.99 6.02 -3.98 4.04 -5 2 C-3.68 2 -2.36 2 -1 2 C-0.67 1.34 -0.34 0.68 0 0 Z " fill="#4F4E52" transform="translate(373,38)"/>
<path d="M0 0 C0.33 0 0.66 0 1 0 C1.185625 1.1446875 1.185625 1.1446875 1.375 2.3125 C1.88102792 5.20267136 1.88102792 5.20267136 4 8 C3.125 10.6875 3.125 10.6875 2 13 C1.67 11.68 1.34 10.36 1 9 C0.01 9 -0.98 9 -2 9 C-1.34 6.03 -0.68 3.06 0 0 Z " fill="#448CB1" transform="translate(203,39)"/>
<path d="M0 0 C0.33 0 0.66 0 1 0 C1.03738281 0.68707031 1.07476562 1.37414063 1.11328125 2.08203125 C1.17902344 2.98308594 1.24476563 3.88414063 1.3125 4.8125 C1.37050781 5.70582031 1.42851562 6.59914063 1.48828125 7.51953125 C2.06313581 10.30604 2.8206856 11.24135754 5 13 C3.1875 13.6875 3.1875 13.6875 1 14 C-0.8125 13 -0.8125 13 -2 11 C-1.72542412 7.22458167 -1.01979255 3.64211624 0 0 Z " fill="#4F596A" transform="translate(269,33)"/>
<path d="M0 0 C0.66 0 1.32 0 2 0 C3.60355101 3.50776784 4.22036864 6.14354879 4 10 C4.66 10 5.32 10 6 10 C5.34 11.32 4.68 12.64 4 14 C3.32471777 12.42032193 2.66010306 10.83608097 2 9.25 C1.62875 8.36828125 1.2575 7.4865625 0.875 6.578125 C0 4 0 4 0 0 Z " fill="#625348" transform="translate(52,35)"/>
<path d="M0 0 C2.49118953 3.7367843 2.2065226 5.74451819 2.125 10.1875 C2.10695313 11.45980469 2.08890625 12.73210938 2.0703125 14.04296875 C2.03550781 15.50669922 2.03550781 15.50669922 2 17 C1.01 16.67 0.02 16.34 -1 16 C-1.26252625 11.66831683 -0.29243536 8.1196377 1 4 C0.34 4 -0.32 4 -1 4 C-0.67 2.68 -0.34 1.36 0 0 Z " fill="#0A0509" transform="translate(283,30)"/>
<path d="M0 0 C0 2.97 0 5.94 0 9 C-1.32 9 -2.64 9 -4 9 C-3.4140625 2.84765625 -3.4140625 2.84765625 -3 1 C-1 0 -1 0 0 0 Z " fill="#04010A" transform="translate(225,41)"/>
<path d="M0 0 C0.66 0.33 1.32 0.66 2 1 C1.47599609 1.74443359 1.47599609 1.74443359 0.94140625 2.50390625 C-2.14110751 7.10584605 -3.65389941 10.46239061 -4 16 C-4.33 16 -4.66 16 -5 16 C-5.29209024 10.35292212 -5.0637112 6.94907193 -2 2 C-1.34 1.34 -0.68 0.68 0 0 Z " fill="#74665B" transform="translate(102,26)"/>
<path d="M0 0 C4.62 0 9.24 0 14 0 C11.12863377 2.87136623 7.88990718 2.8308736 4 3 C1.5 2.5625 1.5 2.5625 0 2 C0 1.34 0 0.68 0 0 Z " fill="#4D8EB0" transform="translate(158,55)"/>
<path d="M0 0 C0.474375 0.763125 0.94875 1.52625 1.4375 2.3125 C4.84486807 5.88608115 8.31425707 6.76849064 13 8 C13 8.33 13 8.66 13 9 C5.81218274 9.60913706 5.81218274 9.60913706 2 6.75 C0 4 0 4 0 0 Z " fill="#3D88AE" transform="translate(181,44)"/>
<path d="M0 0 C2 0 2 0 4.125 2 C4.74375 2.66 5.3625 3.32 6 4 C5.67 4.99 5.34 5.98 5 7 C3.125 6.75 3.125 6.75 1 6 C-0.3125 4.0625 -0.3125 4.0625 -1 2 C-0.67 1.34 -0.34 0.68 0 0 Z " fill="#211B17" transform="translate(292,41)"/>
<path d="M0 0 C1.32 0.66 2.64 1.32 4 2 C3.236875 2.20625 2.47375 2.4125 1.6875 2.625 C-1.82229103 4.42070704 -2.52599781 6.43136312 -4 10 C-4.33 10 -4.66 10 -5 10 C-5.625 7.125 -5.625 7.125 -6 4 C-5.34 3.34 -4.68 2.68 -4 2 C-2.68 2 -1.36 2 0 2 C0 1.34 0 0.68 0 0 Z " fill="#3E8CB4" transform="translate(158,29)"/>
<path d="M0 0 C1.32 0 2.64 0 4 0 C3.67 1.32 3.34 2.64 3 4 C3.66 4 4.32 4 5 4 C5 5.98 5 7.96 5 10 C4.01 10.495 4.01 10.495 3 11 C2.86722656 10.37351562 2.73445313 9.74703125 2.59765625 9.1015625 C2.42105469 8.28429688 2.24445313 7.46703125 2.0625 6.625 C1.80146484 5.40683594 1.80146484 5.40683594 1.53515625 4.1640625 C1.07669307 1.970537 1.07669307 1.970537 0 0 Z " fill="#5A473E" transform="translate(279,30)"/>
<path d="M0 0 C0.99 0 1.98 0 3 0 C4.13732426 3.40401948 3.83989957 5.77456664 3.0625 9.25 C2.86785156 10.14203125 2.67320312 11.0340625 2.47265625 11.953125 C2.31667969 12.62859375 2.16070312 13.3040625 2 14 C1.67 14 1.34 14 1 14 C0.67 9.38 0.34 4.76 0 0 Z " fill="#020105" transform="translate(222,25)"/>
<path d="M0 0 C0.95837449 3.04626176 1.01658162 5.09213636 0.25 8.1875 C0.01023437 9.22970703 0.01023437 9.22970703 -0.234375 10.29296875 C-0.61335938 11.13794922 -0.61335938 11.13794922 -1 12 C-1.99 12.33 -2.98 12.66 -4 13 C-3.52343588 11.20763933 -3.04366502 9.41613103 -2.5625 7.625 C-2.29566406 6.62726562 -2.02882812 5.62953125 -1.75390625 4.6015625 C-1 2 -1 2 0 0 Z " fill="#817165" transform="translate(64,28)"/>
<path d="M0 0 C1.18771723 3.42943519 0.80226223 5.37784675 -0.4375 8.75 C-0.86869141 9.94882812 -0.86869141 9.94882812 -1.30859375 11.171875 C-1.65083984 12.07679687 -1.65083984 12.07679687 -2 13 C-2.33 13 -2.66 13 -3 13 C-3.27429625 7.60550707 -3.36055646 4.48074195 0 0 Z " fill="#0F0403" transform="translate(294,30)"/>
<path d="M0 0 C0.8353125 0.9590625 0.8353125 0.9590625 1.6875 1.9375 C4.22066561 4.19680987 5.68341424 4.63149047 9 5 C9 5.33 9 5.66 9 6 C3.375 7.125 3.375 7.125 0 6 C-1.1875 3.9375 -1.1875 3.9375 -2 2 C-1.34 1.34 -0.68 0.68 0 0 Z " fill="#83C5DC" transform="translate(177,50)"/>
<path d="M0 0 C1.2065625 0.0309375 1.2065625 0.0309375 2.4375 0.0625 C2.1075 0.7225 1.7775 1.3825 1.4375 2.0625 C2.0975 2.7225 2.7575 3.3825 3.4375 4.0625 C0.2182732 5.1355756 -0.46456442 4.86196725 -3.5625 4.0625 C-4.5525 4.5575 -4.5525 4.5575 -5.5625 5.0625 C-3.15007962 0.07683121 -3.15007962 0.07683121 0 0 Z " fill="#443E3A" transform="translate(270.5625,25.9375)"/>
<path d="M0 0 C0.33 0 0.66 0 1 0 C1.36717663 7.4659249 1.36717663 7.4659249 -0.375 10 C-2 11 -2 11 -4 11 C-3.67 9.68 -3.34 8.36 -3 7 C-2.34 7 -1.68 7 -1 7 C-0.67 4.69 -0.34 2.38 0 0 Z " fill="#394350" transform="translate(237,29)"/>
<path d="M0 0 C3.63 0.66 7.26 1.32 11 2 C11 2.33 11 2.66 11 3 C6.545 3.495 6.545 3.495 2 4 C2 3.34 2 2.68 2 2 C1.34 2 0.68 2 0 2 C0 1.34 0 0.68 0 0 Z " fill="#4891B8" transform="translate(162,24)"/>
<path d="M0 0 C1.98 0.495 1.98 0.495 4 1 C3.67 2.65 3.34 4.3 3 6 C1.68 5.67 0.36 5.34 -1 5 C-0.67 3.35 -0.34 1.7 0 0 Z " fill="#4187AD" transform="translate(205,19)"/>
<path d="M0 0 C0.99 0 1.98 0 3 0 C2.67 1.03125 2.34 2.0625 2 3.125 C1.0284808 6.48426709 0.82883229 9.49106202 1 13 C0.34 13 -0.32 13 -1 13 C-1.07654536 8.48382401 -1.10228696 4.40914783 0 0 Z " fill="#070C1F" transform="translate(268,30)"/>
<path d="M0 0 C0.66 0.33 1.32 0.66 2 1 C1.67 3.97 1.34 6.94 1 10 C0.34 10 -0.32 10 -1 10 C-1.02689216 8.52093108 -1.04634621 7.04172517 -1.0625 5.5625 C-1.07410156 4.73878906 -1.08570312 3.91507813 -1.09765625 3.06640625 C-1 1 -1 1 0 0 Z " fill="#010411" transform="translate(26,26)"/>
<path d="M0 0 C0.33 0 0.66 0 1 0 C1 3.3 1 6.6 1 10 C-2 6 -2 6 -1.75 3.3125 C-1 1 -1 1 0 0 Z " fill="#010718" transform="translate(102,35)"/>
<path d="M0 0 C0.33 0 0.66 0 1 0 C1 1.98 1 3.96 1 6 C0.34 6 -0.32 6 -1 6 C-1 6.99 -1 7.98 -1 9 C-2.32 8.67 -3.64 8.34 -5 8 C-4.01 7.67 -3.02 7.34 -2 7 C-1.855625 6.21625 -1.71125 5.4325 -1.5625 4.625 C-1 2 -1 2 0 0 Z " fill="#07060E" transform="translate(65,33)"/>
<path d="M0 0 C0.33 0 0.66 0 1 0 C1 2.64 1 5.28 1 8 C1.66 8.33 2.32 8.66 3 9 C1.68 9.33 0.36 9.66 -1 10 C-1.125 2.25 -1.125 2.25 0 0 Z " fill="#0F1729" transform="translate(225,29)"/>
<path d="M0 0 C1.65 0.33 3.3 0.66 5 1 C4.67 1.99 4.34 2.98 4 4 C2.35 3.67 0.7 3.34 -1 3 C-0.67 2.01 -0.34 1.02 0 0 Z " fill="#0D0C0E" transform="translate(279,26)"/>
<path d="M0 0 C0.99 0 1.98 0 3 0 C3 0.66 3 1.32 3 2 C3.66 2 4.32 2 5 2 C5 2.66 5 3.32 5 4 C3.35 4.33 1.7 4.66 0 5 C-0.33 4.34 -0.66 3.68 -1 3 C-0.67 2.01 -0.34 1.02 0 0 Z " fill="#076FA8" transform="translate(159,24)"/>
<path d="M0 0 C-0.33 0.66 -0.66 1.32 -1 2 C-3.64 2 -6.28 2 -9 2 C-9 1.34 -9 0.68 -9 0 C-5.62182575 -0.84454356 -3.32534757 -1.10844919 0 0 Z " fill="#0D6EA1" transform="translate(198,53)"/>
<path d="M0 0 C2 3 2 3 1.625 5.6875 C1.41875 6.450625 1.2125 7.21375 1 8 C1.66 8 2.32 8 3 8 C2.67 8.66 2.34 9.32 2 10 C0.4375 8.9375 0.4375 8.9375 -1 7 C-0.6875 3.3125 -0.6875 3.3125 0 0 Z " fill="#443731" transform="translate(99,38)"/>
<path d="M0 0 C0.33 0 0.66 0 1 0 C1.16682272 4.92127034 1.24828052 8.50343896 -1 13 C-1.66 12.01 -2.32 11.02 -3 10 C-2.34 9.01 -1.68 8.02 -1 7 C-0.60612212 4.67612053 -0.26513915 2.34206251 0 0 Z " fill="#5C687A" transform="translate(355,33)"/>
<path d="M0 0 C2.475 0.99 2.475 0.99 5 2 C5 2.99 5 3.98 5 5 C3.35 4.67 1.7 4.34 0 4 C-0.33 3.01 -0.66 2.02 -1 1 C-0.67 0.67 -0.34 0.34 0 0 Z " fill="#020205" transform="translate(81,32)"/>
<path d="M0 0 C1.32 0 2.64 0 4 0 C4 0.66 4 1.32 4 2 C4.99 2 5.98 2 7 2 C6.67 2.99 6.34 3.98 6 5 C2.83884224 3.63016497 2.0072908 3.0109362 0 0 Z " fill="#5C98B3" transform="translate(173,54)"/>
<path d="M0 0 C0.66 0.33 1.32 0.66 2 1 C2.625 3.5625 2.625 3.5625 3 6 C1.35 6.33 -0.3 6.66 -2 7 C-1.34 4.69 -0.68 2.38 0 0 Z " fill="#0D6CA2" transform="translate(177,39)"/>
<path d="M0 0 C0.99 0.33 1.98 0.66 3 1 C3 2.98 3 4.96 3 7 C2.01 7.495 2.01 7.495 1 8 C0.67 5.36 0.34 2.72 0 0 Z " fill="#0E0202" transform="translate(232,28)"/>
<path d="M0 0 C0.33 1.32 0.66 2.64 1 4 C-0.98 4.99 -0.98 4.99 -3 6 C-3 4.35 -3 2.7 -3 1 C-2.01 0.67 -1.02 0.34 0 0 Z " fill="#595F64" transform="translate(310,25)"/>
<path d="M0 0 C3.37462715 0.54723683 5.08235 1.0549 8 3 C4.94736336 3.98120464 3.05263664 3.98120464 0 3 C0 2.01 0 1.02 0 0 Z " fill="#4890B7" transform="translate(154,21)"/>
<path d="M0 0 C2.97 0.495 2.97 0.495 6 1 C5.0409375 1.433125 5.0409375 1.433125 4.0625 1.875 C1.84793921 2.82823451 1.84793921 2.82823451 1 5 C1.66 5.33 2.32 5.66 3 6 C2.01 6 1.02 6 0 6 C0 4.02 0 2.04 0 0 Z " fill="#5394B4" transform="translate(148,19)"/>
</svg>
